<svg id="Layer_1" data-name="Layer 1" xmlns="http://www.w3.org/2000/svg" viewBox="0 0 158 258.97"><defs><style>.cls-1,.cls-3{fill:#f4f4f4;}.cls-1,.cls-2,.cls-3{stroke:#f4f4f4;stroke-miterlimit:10;}.cls-1{stroke-width:8px;}.cls-2{fill:none;}.cls-2,.cls-3{stroke-width:6px;}</style></defs><title>travelendar2</title><line class="cls-1" x1="104.65" y1="166.91" x2="100.04" y2="210.48"/><line class="cls-1" x1="53.06" y1="175.07" x2="57.99" y2="208.42"/><line class="cls-1" x1="132.48" y1="140.56" x2="103.9" y2="220.35"/><line class="cls-1" x1="25.23" y1="140.56" x2="55.29" y2="225.54"/><path class="cls-1" d="M149.39,25h-.09c-43.14,0-82.52,41.76-73.71,90.66,9.38,52.09,57.43,90.43,62,90.43H161c4.59,0,52.75-38.35,62.13-90.43C231.91,66.77,192.53,25,149.39,25Zm-.08,118.11a41.61,41.61,0,1,1,41.63-41.61A41.62,41.62,0,0,1,149.31,143.12Z" transform="translate(-70.34 -21.01)"/><path class="cls-2" d="M63.08,204.95H95.21a9.33,9.33,0,0,1,9.33,9.33v25.36A16.33,16.33,0,0,1,88.21,256H70.08a16.33,16.33,0,0,1-16.33-16.33V214.28A9.33,9.33,0,0,1,63.08,204.95Z"/><path class="cls-3" d="M59.72,208.17H98.57a6,6,0,0,1,6,6v0a8.69,8.69,0,0,1-8.69,8.69H62.43a8.69,8.69,0,0,1-8.69-8.69v0a6,6,0,0,1,6-6Z"/></svg>