<svg id="Layer_1" data-name="Layer 1" xmlns="http://www.w3.org/2000/svg" viewBox="0 0 1417 595.25"><defs><style>.cls-1{fill:#555;}.cls-1,.cls-2,.cls-3,.cls-4{stroke:#f2f2f2;stroke-miterlimit:10;}.cls-1,.cls-2{stroke-width:8px;}.cls-2,.cls-4,.cls-5{fill:#f2f2f2;}.cls-3{fill:none;}.cls-3,.cls-4{stroke-width:6px;}.cls-5{font-size:200px;font-family:Pacifico-Regular, Pacifico;}.cls-6{letter-spacing:0.01em;}.cls-7{letter-spacing:-0.01em;}</style></defs><title>trav</title><line class="cls-1" x1="104.65" y1="166.91" x2="100.93" y2="205.13"/><line class="cls-1" x1="53.06" y1="175.07" x2="57.15" y2="205.13"/><line class="cls-1" x1="132.48" y1="140.56" x2="103.9" y2="220.35"/><line class="cls-1" x1="25.23" y1="140.56" x2="55.29" y2="225.54"/><path class="cls-2" d="M91.39,20H91.3C48.16,20,8.78,61.77,17.59,110.67,27,162.76,75,201.1,79.61,201.1H103c4.59,0,52.75-38.35,62.13-90.43C173.91,61.77,134.53,20,91.39,20Zm-.08,118.11a41.61,41.61,0,1,1,41.63-41.61A41.62,41.62,0,0,1,91.31,138.12Z" transform="translate(-12.34 -16.01)"/><path class="cls-3" d="M63.08,204.95H95.21a9.33,9.33,0,0,1,9.33,9.33v25.36A16.33,16.33,0,0,1,88.21,256H70.08a16.33,16.33,0,0,1-16.33-16.33V214.28A9.33,9.33,0,0,1,63.08,204.95Z"/><path class="cls-4" d="M59.72,207.17H98.57a6,6,0,0,1,6,6v0a8.69,8.69,0,0,1-8.69,8.69H62.43a8.69,8.69,0,0,1-8.69-8.69v0a6,6,0,0,1,6-6Z"/><text class="cls-5" transform="translate(201.09 215.37)">T</text><text class="cls-5" transform="translate(305 211.25)">r<tspan class="cls-6" x="91" y="0">a</tspan><tspan x="186.99" y="0">velen</tspan><tspan class="cls-7" x="598.38" y="0">d</tspan><tspan x="699.38" y="0">ar</tspan></text></svg>